<svg xmlns="http://www.w3.org/2000/svg" xmlns:xlink="http://www.w3.org/1999/xlink" width="2000" zoomAndPan="magnify" viewBox="0 0 1500 1499.999933" height="2000" preserveAspectRatio="xMidYMid meet" version="1.0"><defs><g/><clipPath id="612a9ac73c"><rect x="0" width="1450" y="0" height="1500"/></clipPath></defs><g transform="matrix(1, 0, 0, 1, 21, 0.000000000000112861)"><g clip-path="url(#612a9ac73c)"><g fill="#000000" fill-opacity="1"><g transform="translate(1.169709, 1123.485528)"><g><path d="M 369.078125 -872.015625 C 386.585938 -872.015625 407.644531 -867.632812 432.25 -858.875 C 456.863281 -850.125 481.054688 -838.453125 504.828125 -823.859375 C 528.597656 -809.265625 548.40625 -792.375 564.25 -773.1875 C 580.09375 -754 588.015625 -733.976562 588.015625 -713.125 C 588.015625 -692.28125 580.300781 -673.722656 564.875 -657.453125 C 549.445312 -641.191406 529.222656 -633.0625 504.203125 -633.0625 C 485.015625 -633.0625 467.910156 -637.859375 452.890625 -647.453125 C 437.878906 -657.046875 423.703125 -666.632812 410.359375 -676.21875 C 397.015625 -685.8125 382.421875 -690.609375 366.578125 -690.609375 C 345.722656 -690.609375 328.414062 -682.265625 314.65625 -665.578125 C 300.894531 -648.898438 289.632812 -628.050781 280.875 -603.03125 C 272.113281 -578.007812 265.226562 -551.941406 260.21875 -524.828125 C 255.21875 -497.722656 251.882812 -473.328125 250.21875 -451.640625 C 248.550781 -429.960938 247.71875 -414.535156 247.71875 -405.359375 C 247.71875 -385.335938 249.800781 -362.191406 253.96875 -335.921875 C 258.144531 -309.648438 264.191406 -284.210938 272.109375 -259.609375 C 280.035156 -235.003906 290.046875 -214.566406 302.140625 -198.296875 C 314.234375 -182.035156 327.785156 -173.90625 342.796875 -173.90625 C 357.816406 -173.90625 366.785156 -179.953125 369.703125 -192.046875 C 372.617188 -204.140625 373.867188 -219.359375 373.453125 -237.703125 C 373.035156 -256.054688 373.867188 -274.40625 375.953125 -292.75 C 378.046875 -311.101562 384.929688 -326.328125 396.609375 -338.421875 C 408.285156 -350.515625 428.71875 -356.5625 457.90625 -356.5625 C 483.757812 -356.5625 504.609375 -348.425781 520.453125 -332.15625 C 536.304688 -315.894531 544.234375 -296.925781 544.234375 -275.25 C 544.234375 -249.382812 540.6875 -220.1875 533.59375 -187.65625 C 526.507812 -155.132812 515.457031 -123.648438 500.4375 -93.203125 C 485.425781 -62.765625 465.828125 -37.742188 441.640625 -18.140625 C 417.453125 1.460938 387.84375 11.265625 352.8125 11.265625 C 293.59375 11.265625 243.128906 -7.5 201.421875 -45.03125 C 159.722656 -82.570312 128.238281 -134.492188 106.96875 -200.796875 C 85.695312 -267.109375 75.0625 -342.800781 75.0625 -427.875 C 75.0625 -476.25 80.273438 -526.289062 90.703125 -578 C 101.128906 -629.71875 117.8125 -677.890625 140.75 -722.515625 C 163.6875 -767.140625 193.921875 -803.210938 231.453125 -830.734375 C 268.984375 -858.253906 314.859375 -872.015625 369.078125 -872.015625 Z M 369.078125 -872.015625 "/></g></g></g><g fill="#000000" fill-opacity="1"><g transform="translate(614.209643, 1123.485528)"><g><path d="M 417.875 -865.765625 C 453.738281 -865.765625 489.394531 -855.335938 524.84375 -834.484375 C 560.289062 -813.640625 593.441406 -786.328125 624.296875 -752.546875 C 655.160156 -718.765625 682.476562 -681.4375 706.25 -640.5625 C 730.019531 -599.695312 748.785156 -559.035156 762.546875 -518.578125 C 776.304688 -478.128906 783.1875 -441.222656 783.1875 -407.859375 C 783.1875 -372.828125 776.515625 -332.789062 763.171875 -287.75 C 749.828125 -242.707031 731.0625 -201.003906 706.875 -162.640625 C 728.5625 -146.796875 744.410156 -132.828125 754.421875 -120.734375 C 764.429688 -108.640625 769.4375 -93 769.4375 -73.8125 C 769.4375 -52.125 761.09375 -33.148438 744.40625 -16.890625 C 727.726562 -0.628906 704.789062 7.5 675.59375 7.5 C 656.414062 7.5 637.859375 1.453125 619.921875 -10.640625 C 601.992188 -22.734375 587.191406 -35.035156 575.515625 -47.546875 C 570.503906 -45.878906 562.160156 -44.414062 550.484375 -43.15625 C 538.804688 -41.90625 527.335938 -40.863281 516.078125 -40.03125 C 504.816406 -39.195312 496.269531 -38.78125 490.4375 -38.78125 C 433.71875 -38.78125 378.25 -53.582031 324.03125 -83.1875 C 269.820312 -112.800781 220.195312 -147.210938 175.15625 -186.421875 C 136.789062 -220.609375 108.429688 -264.394531 90.078125 -317.78125 C 71.734375 -371.164062 62.5625 -426.210938 62.5625 -482.921875 C 62.5625 -553.816406 75.488281 -618.039062 101.34375 -675.59375 C 127.195312 -733.144531 166.394531 -779.019531 218.9375 -813.21875 C 271.488281 -847.414062 337.800781 -864.929688 417.875 -865.765625 Z M 608.046875 -414.125 C 608.046875 -425.789062 604.289062 -442.882812 596.78125 -465.40625 C 589.269531 -487.925781 579.050781 -511.90625 566.125 -537.34375 C 553.195312 -562.789062 538.390625 -587.191406 521.703125 -610.546875 C 505.023438 -633.898438 487.300781 -653.082031 468.53125 -668.09375 C 449.769531 -683.101562 431.210938 -690.609375 412.859375 -690.609375 C 366.992188 -690.609375 331.335938 -681.847656 305.890625 -664.328125 C 280.453125 -646.816406 262.9375 -621.796875 253.34375 -589.265625 C 243.757812 -556.742188 238.96875 -517.546875 238.96875 -471.671875 C 238.96875 -425.796875 245.640625 -388.46875 258.984375 -359.6875 C 272.328125 -330.914062 289.003906 -308.394531 309.015625 -292.125 C 329.035156 -275.863281 349.472656 -264.601562 370.328125 -258.34375 C 391.179688 -252.09375 409.113281 -248.550781 424.125 -247.71875 C 420.789062 -256.894531 419.125 -266.90625 419.125 -277.75 C 419.125 -300.269531 426.835938 -319.453125 442.265625 -335.296875 C 457.691406 -351.140625 477.082031 -359.0625 500.4375 -359.0625 C 510.445312 -359.0625 521.289062 -357.394531 532.96875 -354.0625 C 544.644531 -350.726562 555.90625 -344.890625 566.75 -336.546875 L 589.265625 -310.28125 C 595.941406 -331.957031 600.738281 -350.925781 603.65625 -367.1875 C 606.582031 -383.457031 608.046875 -399.101562 608.046875 -414.125 Z M 608.046875 -414.125 "/></g></g></g></g></g></svg>